<?xml version="1.0" standalone="no"?>
<!DOCTYPE svg PUBLIC "-//W3C//DTD SVG 20010904//EN"
 "http://www.w3.org/TR/2001/REC-SVG-20010904/DTD/svg10.dtd">
<svg version="1.0" xmlns="http://www.w3.org/2000/svg"
 width="300.000000pt" height="114.000000pt" viewBox="0 0 300.000000 114.000000"
 preserveAspectRatio="xMidYMid meet">
<metadata>
Created by potrace 1.10, written by Peter Selinger 2001-2011
</metadata>
<g transform="translate(0.000000,114.000000) scale(0.100000,-0.100000)"
fill="#000000" stroke="none">
<path d="M597 790 c-17 -20 -29 -49 -33 -80 l-6 -49 -43 6 c-35 4 -45 2 -64
-18 -29 -31 -27 -44 14 -85 l35 -35 -24 -32 c-74 -97 -9 -150 112 -90 37 18
38 18 92 -4 66 -27 103 -29 125 -7 22 22 13 48 -40 120 -6 9 -3 20 12 36 27
28 44 73 37 93 -8 20 -39 28 -79 21 -34 -7 -34 -6 -41 39 -6 45 -39 105 -60
112 -6 2 -23 -10 -37 -27z m73 -59 c5 -20 10 -53 10 -73 l0 -38 -51 0 -52 0 5
63 c3 36 13 75 23 91 17 25 19 26 36 10 11 -9 23 -33 29 -53z m-132 -87 c32
-9 31 -66 -3 -88 -23 -15 -25 -15 -40 6 -8 12 -15 33 -15 45 0 13 -5 23 -11
23 -5 0 -7 5 -4 10 7 11 39 13 73 4z m252 -15 c0 -21 -36 -89 -48 -89 -18 0
-42 37 -42 66 0 34 9 41 63 43 21 1 27 -3 27 -20z m-110 -30 c0 -12 -97 -12
-104 0 -3 4 19 8 49 8 30 0 55 -4 55 -8z m0 -51 c0 -16 5 -28 10 -28 6 0 10 7
10 16 0 14 3 14 15 4 18 -15 3 -40 -23 -40 -9 0 -26 -12 -37 -27 l-22 -26 -46
32 c-56 38 -61 45 -42 61 12 10 15 10 15 -3 0 -9 5 -19 11 -23 8 -5 10 3 5 28
l-6 34 55 0 c53 -1 55 -2 55 -28z m-80 -108 c0 -11 -47 -29 -90 -36 -53 -9
-61 13 -26 67 l27 40 44 -32 c25 -18 45 -35 45 -39z m174 28 c18 -31 22 -46
14 -55 -14 -17 -34 -16 -90 4 -53 19 -62 33 -23 33 15 0 28 7 32 18 8 23 23
42 34 42 4 0 19 -19 33 -42z"/>
<path d="M890 485 c0 -128 1 -135 20 -135 18 0 20 7 20 60 l0 60 41 0 c51 0
77 14 90 47 23 62 -26 103 -122 103 l-49 0 0 -135z m128 82 c15 -12 16 -39 0
-55 -7 -7 -29 -12 -50 -12 l-38 0 0 44 0 45 38 -6 c20 -3 43 -10 50 -16z"/>
<path d="M1107 613 c-15 -14 -7 -43 12 -43 23 0 34 23 18 39 -13 13 -21 14
-30 4z"/>
<path d="M2170 494 c-30 -70 -57 -131 -59 -136 -2 -5 7 -8 20 -6 16 2 26 13
33 36 9 32 9 32 72 32 63 0 64 0 78 -35 10 -24 22 -35 35 -35 19 0 18 5 -15
83 -20 45 -46 106 -57 134 -13 31 -28 53 -37 53 -10 0 -34 -44 -70 -126z m95
11 l23 -55 -50 0 c-27 0 -48 3 -46 8 2 4 12 30 23 59 11 29 21 50 24 48 2 -3
14 -29 26 -60z"/>
<path d="M2397 613 c-15 -14 -7 -43 12 -43 26 0 36 17 21 35 -14 16 -23 19
-33 8z"/>
<path d="M1380 555 c0 -18 -5 -25 -20 -25 -11 0 -20 -5 -20 -10 0 -7 -6 -7
-19 0 -26 14 -82 12 -102 -3 -23 -17 -39 -52 -39 -82 0 -34 50 -85 84 -85 40
0 78 21 66 36 -8 9 -18 9 -40 1 -24 -9 -32 -8 -49 8 -23 20 -28 74 -9 93 15
15 60 16 75 1 8 -8 13 -8 17 0 4 6 18 11 32 11 23 0 24 -3 24 -63 0 -70 10
-87 52 -87 20 0 28 5 28 18 0 13 -7 18 -22 18 -21 -1 -23 4 -26 57 -3 55 -2
57 23 57 16 0 25 6 25 15 0 9 -9 15 -25 15 -20 0 -25 5 -25 25 0 16 -6 25 -15
25 -9 0 -15 -9 -15 -25z"/>
<path d="M1100 440 c0 -83 1 -90 20 -90 19 0 20 7 20 90 0 83 -1 90 -20 90
-19 0 -20 -7 -20 -90z"/>
<path d="M1500 460 c0 -57 4 -74 20 -90 21 -21 55 -26 80 -10 9 6 17 5 21 -2
4 -6 14 -8 23 -5 13 5 16 23 16 92 0 78 -2 85 -20 85 -18 0 -20 -7 -20 -65 0
-54 -3 -66 -20 -75 -49 -26 -81 25 -66 105 6 31 4 35 -14 35 -18 0 -20 -6 -20
-70z"/>
<path d="M1706 443 c1 -72 4 -89 17 -91 13 -3 17 9 19 65 3 67 3 68 36 78 17
5 32 15 32 22 0 16 -42 17 -58 1 -9 -9 -12 -9 -12 0 0 7 -8 12 -17 12 -16 0
-18 -10 -17 -87z"/>
<path d="M1855 517 c-26 -19 -4 -29 33 -15 24 9 34 9 46 -1 29 -24 19 -41 -24
-41 -42 0 -80 -26 -80 -55 0 -23 37 -55 63 -55 12 0 33 7 45 16 20 14 22 14
22 -1 0 -9 5 -15 12 -13 19 7 11 150 -9 166 -22 16 -84 15 -108 -1z m95 -95
c0 -26 -20 -42 -52 -42 -21 0 -28 5 -28 20 0 22 25 39 58 40 15 0 22 -6 22
-18z"/>
<path d="M2392 443 c3 -74 6 -88 21 -91 15 -3 17 6 17 87 0 85 -1 91 -20 91
-20 0 -21 -5 -18 -87z"/>
<path d="M563 328 c4 -51 19 -91 52 -133 17 -22 14 -24 54 40 23 36 39 145 22
145 -6 0 -11 -11 -11 -25 0 -28 -33 -42 -75 -31 -18 5 -25 13 -25 31 0 14 -5
25 -11 25 -6 0 -9 -20 -6 -52z m49 -40 c4 -31 26 -34 34 -4 3 14 10 26 15 26
16 0 9 -42 -12 -72 l-22 -30 -18 29 c-20 29 -25 73 -10 73 5 0 11 -10 13 -22z"/>
</g>
</svg>
